<mxfile host="app.diagrams.net" modified="2023-11-22T02:12:19.676Z" agent="Mozilla/5.0 (Macintosh; Intel Mac OS X 10_15_7) AppleWebKit/537.36 (KHTML, like Gecko) Chrome/119.0.0.0 Safari/537.36" etag="I729Ei15H8ko87jsAwq-" version="22.1.3" type="github">
  <diagram name="第 1 页" id="gS_8YeXv_4rNb7S6VLPN">
    <mxGraphModel dx="1434" dy="765" grid="1" gridSize="10" guides="1" tooltips="1" connect="1" arrows="1" fold="1" page="1" pageScale="1" pageWidth="827" pageHeight="1169" math="0" shadow="0">
      <root>
        <mxCell id="0" />
        <mxCell id="1" parent="0" />
        <mxCell id="LEdIwfUVFKHPP0_J3hsQ-1" value="" style="shape=cylinder3;whiteSpace=wrap;html=1;boundedLbl=1;backgroundOutline=1;size=15;direction=north;fillColor=#f5f5f5;fontColor=#333333;strokeColor=#666666;" vertex="1" parent="1">
          <mxGeometry x="180" y="220" width="360" height="60" as="geometry" />
        </mxCell>
        <mxCell id="LEdIwfUVFKHPP0_J3hsQ-4" value="T(8:00)" style="rounded=0;whiteSpace=wrap;html=1;fillColor=#fff2cc;strokeColor=#d6b656;dashed=1;" vertex="1" parent="1">
          <mxGeometry x="220" y="240" width="40" height="20" as="geometry" />
        </mxCell>
        <mxCell id="LEdIwfUVFKHPP0_J3hsQ-7" value="T(8:15)" style="rounded=0;whiteSpace=wrap;html=1;fillColor=#dae8fc;strokeColor=#6c8ebf;" vertex="1" parent="1">
          <mxGeometry x="395" y="160" width="40" height="20" as="geometry" />
        </mxCell>
        <mxCell id="LEdIwfUVFKHPP0_J3hsQ-8" value="" style="endArrow=classic;html=1;rounded=0;exitX=0.5;exitY=1;exitDx=0;exitDy=0;" edge="1" parent="1" source="LEdIwfUVFKHPP0_J3hsQ-7" target="LEdIwfUVFKHPP0_J3hsQ-9">
          <mxGeometry width="50" height="50" relative="1" as="geometry">
            <mxPoint x="90" y="420" as="sourcePoint" />
            <mxPoint x="430" y="200" as="targetPoint" />
          </mxGeometry>
        </mxCell>
        <mxCell id="LEdIwfUVFKHPP0_J3hsQ-9" value="T(8:15)" style="rounded=0;whiteSpace=wrap;html=1;fillColor=#d5e8d4;strokeColor=#82b366;dashed=1;" vertex="1" parent="1">
          <mxGeometry x="395" y="240" width="40" height="20" as="geometry" />
        </mxCell>
        <mxCell id="LEdIwfUVFKHPP0_J3hsQ-11" value="T(8:10)" style="rounded=0;whiteSpace=wrap;html=1;fillColor=#dae8fc;strokeColor=#6c8ebf;" vertex="1" parent="1">
          <mxGeometry x="280" y="240" width="40" height="20" as="geometry" />
        </mxCell>
        <mxCell id="LEdIwfUVFKHPP0_J3hsQ-12" value="T(8:20)" style="rounded=0;whiteSpace=wrap;html=1;fillColor=#dae8fc;strokeColor=#6c8ebf;" vertex="1" parent="1">
          <mxGeometry x="460" y="240" width="40" height="20" as="geometry" />
        </mxCell>
        <mxCell id="LEdIwfUVFKHPP0_J3hsQ-13" value="" style="endArrow=classic;html=1;rounded=0;" edge="1" parent="1">
          <mxGeometry width="50" height="50" relative="1" as="geometry">
            <mxPoint x="220" y="250.5" as="sourcePoint" />
            <mxPoint x="130" y="250" as="targetPoint" />
          </mxGeometry>
        </mxCell>
        <mxCell id="LEdIwfUVFKHPP0_J3hsQ-14" value="T(8:13)" style="rounded=0;whiteSpace=wrap;html=1;fillColor=#dae8fc;strokeColor=#6c8ebf;" vertex="1" parent="1">
          <mxGeometry x="340" y="240" width="40" height="20" as="geometry" />
        </mxCell>
        <mxCell id="LEdIwfUVFKHPP0_J3hsQ-16" value="" style="endArrow=none;dashed=1;html=1;dashPattern=1 3;strokeWidth=2;rounded=0;" edge="1" parent="1">
          <mxGeometry width="50" height="50" relative="1" as="geometry">
            <mxPoint x="270" y="290" as="sourcePoint" />
            <mxPoint x="270" y="170" as="targetPoint" />
          </mxGeometry>
        </mxCell>
        <mxCell id="LEdIwfUVFKHPP0_J3hsQ-17" value="8:01" style="text;html=1;strokeColor=none;fillColor=none;align=center;verticalAlign=middle;whiteSpace=wrap;rounded=0;" vertex="1" parent="1">
          <mxGeometry x="240" y="140" width="60" height="30" as="geometry" />
        </mxCell>
        <mxCell id="LEdIwfUVFKHPP0_J3hsQ-29" value="" style="group" vertex="1" connectable="0" parent="1">
          <mxGeometry x="190" y="420" width="156" height="150" as="geometry" />
        </mxCell>
        <mxCell id="LEdIwfUVFKHPP0_J3hsQ-18" value="" style="ellipse;whiteSpace=wrap;html=1;aspect=fixed;fillColor=#d5e8d4;strokeColor=#82b366;" vertex="1" parent="LEdIwfUVFKHPP0_J3hsQ-29">
          <mxGeometry width="150" height="150" as="geometry" />
        </mxCell>
        <mxCell id="LEdIwfUVFKHPP0_J3hsQ-19" value="" style="ellipse;whiteSpace=wrap;html=1;aspect=fixed;" vertex="1" parent="LEdIwfUVFKHPP0_J3hsQ-29">
          <mxGeometry x="35" y="35" width="80" height="80" as="geometry" />
        </mxCell>
        <mxCell id="LEdIwfUVFKHPP0_J3hsQ-20" value="" style="endArrow=none;html=1;rounded=0;entryX=0.5;entryY=0;entryDx=0;entryDy=0;exitX=0.5;exitY=0;exitDx=0;exitDy=0;" edge="1" parent="LEdIwfUVFKHPP0_J3hsQ-29" source="LEdIwfUVFKHPP0_J3hsQ-19" target="LEdIwfUVFKHPP0_J3hsQ-18">
          <mxGeometry width="50" height="50" relative="1" as="geometry">
            <mxPoint x="190" y="20" as="sourcePoint" />
            <mxPoint x="240" y="-30" as="targetPoint" />
          </mxGeometry>
        </mxCell>
        <mxCell id="LEdIwfUVFKHPP0_J3hsQ-22" value="" style="endArrow=none;html=1;rounded=0;exitX=0;exitY=0;exitDx=0;exitDy=0;" edge="1" parent="LEdIwfUVFKHPP0_J3hsQ-29" source="LEdIwfUVFKHPP0_J3hsQ-19" target="LEdIwfUVFKHPP0_J3hsQ-18">
          <mxGeometry width="50" height="50" relative="1" as="geometry">
            <mxPoint x="50" y="50" as="sourcePoint" />
            <mxPoint x="50" y="10" as="targetPoint" />
          </mxGeometry>
        </mxCell>
        <mxCell id="LEdIwfUVFKHPP0_J3hsQ-23" value="" style="endArrow=none;html=1;rounded=0;entryX=0;entryY=0.5;entryDx=0;entryDy=0;exitX=0;exitY=0.5;exitDx=0;exitDy=0;" edge="1" parent="LEdIwfUVFKHPP0_J3hsQ-29" source="LEdIwfUVFKHPP0_J3hsQ-19" target="LEdIwfUVFKHPP0_J3hsQ-18">
          <mxGeometry width="50" height="50" relative="1" as="geometry">
            <mxPoint x="30" y="75" as="sourcePoint" />
            <mxPoint x="15.279999999999973" y="50.02999999999997" as="targetPoint" />
          </mxGeometry>
        </mxCell>
        <mxCell id="LEdIwfUVFKHPP0_J3hsQ-24" value="" style="endArrow=none;html=1;rounded=0;entryX=0;entryY=1;entryDx=0;entryDy=0;exitX=0;exitY=1;exitDx=0;exitDy=0;" edge="1" parent="LEdIwfUVFKHPP0_J3hsQ-29" source="LEdIwfUVFKHPP0_J3hsQ-19" target="LEdIwfUVFKHPP0_J3hsQ-18">
          <mxGeometry width="50" height="50" relative="1" as="geometry">
            <mxPoint x="40" y="100" as="sourcePoint" />
            <mxPoint x="5" y="100" as="targetPoint" />
          </mxGeometry>
        </mxCell>
        <mxCell id="LEdIwfUVFKHPP0_J3hsQ-25" value="" style="endArrow=none;html=1;rounded=0;entryX=0.5;entryY=1;entryDx=0;entryDy=0;exitX=0.5;exitY=1;exitDx=0;exitDy=0;" edge="1" parent="LEdIwfUVFKHPP0_J3hsQ-29" source="LEdIwfUVFKHPP0_J3hsQ-19" target="LEdIwfUVFKHPP0_J3hsQ-18">
          <mxGeometry width="50" height="50" relative="1" as="geometry">
            <mxPoint x="72.66000000000003" y="124.97000000000003" as="sourcePoint" />
            <mxPoint x="47.660000000000025" y="149.97000000000003" as="targetPoint" />
          </mxGeometry>
        </mxCell>
        <mxCell id="LEdIwfUVFKHPP0_J3hsQ-26" value="" style="endArrow=none;html=1;rounded=0;entryX=1;entryY=1;entryDx=0;entryDy=0;exitX=1;exitY=1;exitDx=0;exitDy=0;" edge="1" parent="LEdIwfUVFKHPP0_J3hsQ-29" source="LEdIwfUVFKHPP0_J3hsQ-19" target="LEdIwfUVFKHPP0_J3hsQ-18">
          <mxGeometry width="50" height="50" relative="1" as="geometry">
            <mxPoint x="115" y="110" as="sourcePoint" />
            <mxPoint x="115" y="145" as="targetPoint" />
          </mxGeometry>
        </mxCell>
        <mxCell id="LEdIwfUVFKHPP0_J3hsQ-27" value="" style="endArrow=none;html=1;rounded=0;entryX=1;entryY=0.5;entryDx=0;entryDy=0;exitX=1;exitY=0.5;exitDx=0;exitDy=0;" edge="1" parent="LEdIwfUVFKHPP0_J3hsQ-29" source="LEdIwfUVFKHPP0_J3hsQ-19" target="LEdIwfUVFKHPP0_J3hsQ-18">
          <mxGeometry width="50" height="50" relative="1" as="geometry">
            <mxPoint x="123.72000000000003" y="64.72000000000003" as="sourcePoint" />
            <mxPoint x="135.72000000000003" y="106.72000000000003" as="targetPoint" />
          </mxGeometry>
        </mxCell>
        <mxCell id="LEdIwfUVFKHPP0_J3hsQ-28" value="" style="endArrow=none;html=1;rounded=0;entryX=1;entryY=0;entryDx=0;entryDy=0;exitX=1;exitY=0;exitDx=0;exitDy=0;" edge="1" parent="LEdIwfUVFKHPP0_J3hsQ-29" source="LEdIwfUVFKHPP0_J3hsQ-19" target="LEdIwfUVFKHPP0_J3hsQ-18">
          <mxGeometry width="50" height="50" relative="1" as="geometry">
            <mxPoint x="183" y="-0.2799999999999727" as="sourcePoint" />
            <mxPoint x="195" y="41.72000000000003" as="targetPoint" />
          </mxGeometry>
        </mxCell>
        <mxCell id="LEdIwfUVFKHPP0_J3hsQ-30" value="t1" style="text;html=1;strokeColor=none;fillColor=none;align=center;verticalAlign=middle;whiteSpace=wrap;rounded=0;" vertex="1" parent="LEdIwfUVFKHPP0_J3hsQ-29">
          <mxGeometry x="85" y="5" width="30" height="30" as="geometry" />
        </mxCell>
        <mxCell id="LEdIwfUVFKHPP0_J3hsQ-32" value="t3" style="text;html=1;strokeColor=none;fillColor=none;align=center;verticalAlign=middle;whiteSpace=wrap;rounded=0;" vertex="1" parent="LEdIwfUVFKHPP0_J3hsQ-29">
          <mxGeometry x="115" y="80" width="30" height="30" as="geometry" />
        </mxCell>
        <mxCell id="LEdIwfUVFKHPP0_J3hsQ-33" value="t4" style="text;html=1;strokeColor=none;fillColor=none;align=center;verticalAlign=middle;whiteSpace=wrap;rounded=0;" vertex="1" parent="LEdIwfUVFKHPP0_J3hsQ-29">
          <mxGeometry x="85" y="110" width="30" height="30" as="geometry" />
        </mxCell>
        <mxCell id="LEdIwfUVFKHPP0_J3hsQ-34" value="t5" style="text;html=1;strokeColor=none;fillColor=none;align=center;verticalAlign=middle;whiteSpace=wrap;rounded=0;" vertex="1" parent="LEdIwfUVFKHPP0_J3hsQ-29">
          <mxGeometry x="35" y="115" width="30" height="30" as="geometry" />
        </mxCell>
        <mxCell id="LEdIwfUVFKHPP0_J3hsQ-35" value="t6" style="text;html=1;strokeColor=none;fillColor=none;align=center;verticalAlign=middle;whiteSpace=wrap;rounded=0;" vertex="1" parent="LEdIwfUVFKHPP0_J3hsQ-29">
          <mxGeometry x="5" y="80" width="30" height="30" as="geometry" />
        </mxCell>
        <mxCell id="LEdIwfUVFKHPP0_J3hsQ-36" value="t7" style="text;html=1;strokeColor=none;fillColor=none;align=center;verticalAlign=middle;whiteSpace=wrap;rounded=0;" vertex="1" parent="LEdIwfUVFKHPP0_J3hsQ-29">
          <mxGeometry x="5" y="40" width="30" height="30" as="geometry" />
        </mxCell>
        <mxCell id="LEdIwfUVFKHPP0_J3hsQ-37" value="t8" style="text;html=1;strokeColor=none;fillColor=none;align=center;verticalAlign=middle;whiteSpace=wrap;rounded=0;" vertex="1" parent="LEdIwfUVFKHPP0_J3hsQ-29">
          <mxGeometry x="35" y="5" width="30" height="30" as="geometry" />
        </mxCell>
        <mxCell id="LEdIwfUVFKHPP0_J3hsQ-31" value="t2" style="text;html=1;strokeColor=none;fillColor=none;align=center;verticalAlign=middle;whiteSpace=wrap;rounded=0;" vertex="1" parent="LEdIwfUVFKHPP0_J3hsQ-29">
          <mxGeometry x="115" y="35" width="30" height="30" as="geometry" />
        </mxCell>
        <mxCell id="LEdIwfUVFKHPP0_J3hsQ-38" value="T(8:15)" style="rounded=0;whiteSpace=wrap;html=1;fillColor=#dae8fc;strokeColor=#6c8ebf;" vertex="1" parent="1">
          <mxGeometry x="381" y="520" width="40" height="20" as="geometry" />
        </mxCell>
        <mxCell id="LEdIwfUVFKHPP0_J3hsQ-39" value="" style="endArrow=classic;html=1;rounded=0;entryX=1;entryY=0.5;entryDx=0;entryDy=0;exitX=0;exitY=0.5;exitDx=0;exitDy=0;" edge="1" parent="1" source="LEdIwfUVFKHPP0_J3hsQ-38" target="LEdIwfUVFKHPP0_J3hsQ-32">
          <mxGeometry width="50" height="50" relative="1" as="geometry">
            <mxPoint x="351" y="650" as="sourcePoint" />
            <mxPoint x="401" y="600" as="targetPoint" />
          </mxGeometry>
        </mxCell>
        <mxCell id="LEdIwfUVFKHPP0_J3hsQ-40" value="T(8:20)" style="rounded=0;whiteSpace=wrap;html=1;fillColor=#dae8fc;strokeColor=#6c8ebf;" vertex="1" parent="1">
          <mxGeometry x="220" y="610" width="40" height="20" as="geometry" />
        </mxCell>
        <mxCell id="LEdIwfUVFKHPP0_J3hsQ-41" value="" style="endArrow=classic;html=1;rounded=0;entryX=0.5;entryY=1;entryDx=0;entryDy=0;exitX=0.5;exitY=0;exitDx=0;exitDy=0;" edge="1" parent="1" source="LEdIwfUVFKHPP0_J3hsQ-40" target="LEdIwfUVFKHPP0_J3hsQ-34">
          <mxGeometry width="50" height="50" relative="1" as="geometry">
            <mxPoint x="391" y="540" as="sourcePoint" />
            <mxPoint x="345" y="525" as="targetPoint" />
          </mxGeometry>
        </mxCell>
        <mxCell id="LEdIwfUVFKHPP0_J3hsQ-42" value="T(9:20)&lt;br&gt;cycle=1" style="rounded=0;whiteSpace=wrap;html=1;fillColor=#dae8fc;strokeColor=#6c8ebf;" vertex="1" parent="1">
          <mxGeometry x="221" y="660" width="40" height="30" as="geometry" />
        </mxCell>
        <mxCell id="LEdIwfUVFKHPP0_J3hsQ-43" value="" style="endArrow=classic;html=1;rounded=0;entryX=0.5;entryY=1;entryDx=0;entryDy=0;exitX=0.5;exitY=0;exitDx=0;exitDy=0;" edge="1" parent="1" source="LEdIwfUVFKHPP0_J3hsQ-42" target="LEdIwfUVFKHPP0_J3hsQ-40">
          <mxGeometry width="50" height="50" relative="1" as="geometry">
            <mxPoint x="281" y="690" as="sourcePoint" />
            <mxPoint x="281" y="645" as="targetPoint" />
          </mxGeometry>
        </mxCell>
        <mxCell id="LEdIwfUVFKHPP0_J3hsQ-46" value="" style="endArrow=classic;html=1;rounded=0;entryX=1;entryY=0.25;entryDx=0;entryDy=0;exitX=0;exitY=0.5;exitDx=0;exitDy=0;dashed=1;" edge="1" parent="1" target="LEdIwfUVFKHPP0_J3hsQ-31">
          <mxGeometry width="50" height="50" relative="1" as="geometry">
            <mxPoint x="401" y="435" as="sourcePoint" />
            <mxPoint x="355" y="420" as="targetPoint" />
          </mxGeometry>
        </mxCell>
        <mxCell id="LEdIwfUVFKHPP0_J3hsQ-47" value="curr" style="text;html=1;strokeColor=none;fillColor=none;align=center;verticalAlign=middle;whiteSpace=wrap;rounded=0;" vertex="1" parent="1">
          <mxGeometry x="401" y="410" width="30" height="30" as="geometry" />
        </mxCell>
        <mxCell id="LEdIwfUVFKHPP0_J3hsQ-50" value="&lt;h1&gt;延迟队列&lt;/h1&gt;&lt;p&gt;1. 使用优先队列存储任务&lt;/p&gt;&lt;p&gt;&amp;nbsp;- 元素中包含时间字段&lt;/p&gt;&lt;p&gt;&amp;nbsp;- 队列根据时间从小到大插入队列&lt;/p&gt;&lt;p&gt;2. 从队列pop元素时优先判断队列时间是否过期&lt;/p&gt;&lt;p&gt;&lt;br&gt;&lt;/p&gt;" style="text;html=1;strokeColor=none;fillColor=none;spacing=5;spacingTop=-20;whiteSpace=wrap;overflow=hidden;rounded=0;" vertex="1" parent="1">
          <mxGeometry x="580" y="120" width="190" height="180" as="geometry" />
        </mxCell>
        <mxCell id="LEdIwfUVFKHPP0_J3hsQ-51" value="" style="rounded=1;whiteSpace=wrap;html=1;" vertex="1" parent="1">
          <mxGeometry x="40" y="220" width="90" height="60" as="geometry" />
        </mxCell>
        <mxCell id="LEdIwfUVFKHPP0_J3hsQ-52" value="T(8:00)" style="rounded=0;whiteSpace=wrap;html=1;fillColor=#fff2cc;strokeColor=#d6b656;" vertex="1" parent="1">
          <mxGeometry x="65" y="230" width="40" height="20" as="geometry" />
        </mxCell>
        <mxCell id="LEdIwfUVFKHPP0_J3hsQ-53" value="执行任务" style="text;html=1;strokeColor=none;fillColor=none;align=center;verticalAlign=middle;whiteSpace=wrap;rounded=0;" vertex="1" parent="1">
          <mxGeometry x="55" y="250" width="60" height="30" as="geometry" />
        </mxCell>
        <mxCell id="LEdIwfUVFKHPP0_J3hsQ-54" value="&lt;h1&gt;时间轮&lt;/h1&gt;&lt;p&gt;1. 将一个圆盘分层若干个槽， 每个槽对应一个时间点。&lt;/p&gt;&lt;p&gt;2. 将任务挂在对应的时间槽上。&lt;/p&gt;&lt;p&gt;3. 指针按固定频率滚动。&lt;/p&gt;&lt;p&gt;4. 处理当前槽上的元素（执行或cycle-1）&lt;/p&gt;&lt;p&gt;&lt;font color=&quot;#ff3333&quot;&gt;圆盘最大时间 = 频率 * 槽数&lt;/font&gt;&lt;/p&gt;&lt;p&gt;&lt;br&gt;&lt;/p&gt;" style="text;html=1;strokeColor=none;fillColor=none;spacing=5;spacingTop=-20;whiteSpace=wrap;overflow=hidden;rounded=0;" vertex="1" parent="1">
          <mxGeometry x="550" y="450" width="230" height="200" as="geometry" />
        </mxCell>
        <mxCell id="LEdIwfUVFKHPP0_J3hsQ-55" value="&lt;h1&gt;问题&lt;/h1&gt;&lt;p&gt;1. 任务（告警）时间调整，需要对元素进行删除和移动。&lt;/p&gt;&lt;p&gt;2. 服务宕机或停止数据持久化，重启后任务（告警）需要继续执行。&lt;/p&gt;&lt;p&gt;3. 微服务场景下，需要将任务分配到不同的实例上进行执行。&lt;/p&gt;" style="text;html=1;strokeColor=none;fillColor=none;spacing=5;spacingTop=-20;whiteSpace=wrap;overflow=hidden;rounded=0;" vertex="1" parent="1">
          <mxGeometry x="50" y="760" width="380" height="120" as="geometry" />
        </mxCell>
      </root>
    </mxGraphModel>
  </diagram>
</mxfile>
